<svg width="123" height="20" viewBox="0 0 123 20" fill="none" xmlns="http://www.w3.org/2000/svg">
<g id="Group 39">
<path id="Vector" d="M9.75347 0C6.33707 0 4.33333 1.48714 4.33333 4.87571V7.85714H0V11.4286H4.33333V20H8.66667V11.4286H12.1333L13 7.85714H8.66667V5.48C8.66667 4.20357 9.17193 3.57143 10.6253 3.57143H13V0.146429C12.5892 0.100714 11.3923 0 9.75347 0Z" fill="#EEEEEE"/>
<path id="Vector_2" d="M49 3.9205C48.2089 4.27615 47.4178 4.48954 46.4829 4.6318C47.3459 4.06276 48.0651 3.28033 48.4247 2.28452C47.5616 2.78243 46.6267 3.13808 45.6918 3.35146C44.9007 2.49791 43.75 2 42.5274 2C40.1541 2 38.1404 3.9205 38.1404 6.33891C38.1404 6.69456 38.2123 6.97908 38.2842 7.33473C34.6884 7.19247 31.4521 5.41423 29.2945 2.85356C28.9349 3.35146 28.7192 4.06276 28.7192 4.84519C28.7192 6.33891 29.5103 7.69038 30.661 8.40167C29.9418 8.40167 29.2945 8.18828 28.7192 7.83264V7.90377C28.7192 9.96653 30.2295 11.7448 32.2432 12.1004C31.8836 12.1715 31.524 12.2427 31.0925 12.2427C30.8048 12.2427 30.5171 12.2427 30.3014 12.1715C30.8767 13.8787 32.4589 15.159 34.4007 15.159C32.8904 16.2971 31.0205 17.0084 29.0068 17.0084C28.6473 17.0084 28.2877 17.0084 28 16.9372C29.726 18.2887 32.0274 19 34.4726 19C42.4555 19 46.8425 12.4561 46.8425 6.76569V6.19665C47.7055 5.55649 48.4247 4.84519 49 3.9205Z" fill="#EEEEEE"/>
<g id="Group">
<path id="Vector_3" fill-rule="evenodd" clip-rule="evenodd" d="M72.8183 9.2727V12.1818H77.6062C77.4244 13.4545 76.1516 15.8181 72.8183 15.8181C69.9092 15.8181 67.5456 13.3939 67.5456 10.4848C67.5456 7.57574 69.9092 5.1515 72.8183 5.1515C74.4547 5.1515 75.5456 5.87877 76.2122 6.48483L78.5153 4.24242C77.0001 2.84848 75.1213 2 72.8183 2C68.1517 2 64.3335 5.81817 64.3335 10.4848C64.3335 15.1515 68.1517 18.9696 72.8183 18.9696C77.7274 18.9696 80.9395 15.5151 80.9395 10.6666C80.9395 10.1212 80.8789 9.69694 80.8183 9.2727H72.8183Z" fill="#EEEEEE"/>
<path id="Vector_4" fill-rule="evenodd" clip-rule="evenodd" d="M90.9997 9.27262H88.5755V6.84839H86.1513V9.27262H83.7271V11.6969H86.1513V14.1211H88.5755V11.6969H90.9997V9.27262Z" fill="#EEEEEE"/>
</g>
<path id="Vector_5" d="M107.265 1C106.968 0.999774 106.674 1.05857 106.399 1.17304C106.124 1.28751 105.874 1.4554 105.664 1.66713C105.454 1.87886 105.287 2.13028 105.173 2.40702C105.059 2.68376 105 2.9804 105 3.28C105 4.54091 106.014 5.58591 107.263 5.58591C108.513 5.58591 109.528 4.54091 109.528 3.28173C109.529 2.98217 109.47 2.6855 109.357 2.40868C109.243 2.13186 109.076 1.88031 108.866 1.66841C108.656 1.45651 108.406 1.28841 108.132 1.17372C107.857 1.05903 107.563 1 107.265 1ZM118.316 7.04546C116.414 7.04546 115.326 8.04727 114.803 9.04391H114.748V7.31405H111V20H114.906V13.7205C114.906 12.0658 115.029 10.4663 117.062 10.4663C119.065 10.4663 119.094 12.3534 119.094 13.825V20H123V13.0322C123 9.62255 122.272 7.04546 118.316 7.04546ZM105.311 7.31318V20H109.22V7.31318H105.311Z" fill="#EEEEEE"/>
</g>
</svg>
